<svg data-name="Layer 1" xmlns="http://www.w3.org/2000/svg" viewBox="0 0 1370.61 1372.5"><path d="M1285.7 86.24c-67.66 135.32-134.59 269.19-202.21 404.44 96.19-36.04 191.12-71.62 287.12-107.59-1.11 2.01-1.67 3.23-2.41 4.33-128.97 192.34-259.29 383.75-395.83 570.84-53.4 73.18-107.49 145.85-165.62 215.39-25 29.91-50.34 59.57-79.28 85.82-59.88 54.3-129.81 88.66-208.98 104.46-41.6 8.3-83.6 10.69-125.77 6.66-105.98-10.13-196.84-52.23-270.89-129.45-61.31-63.94-99.99-139.48-114.92-226.71-18.62-108.78.29-210.93 57.06-305.77 23.56-39.37 54.01-72.95 88-103.52 61.38-55.19 126.83-105.28 193.14-154.26 145.31-107.34 293.71-210.3 443.5-311.26C857.07 93.47 925.9 47.87 994.57 2.03c1.36-.91 2.78-1.73 5.11-2.02-37.8 94.86-75.6 189.73-114.01 286.1 133.72-66.81 266.2-133 400.01-199.86ZM716.11 351.72c-2.55 1.65-3.95 2.51-5.31 3.43-88.62 59.49-175.44 121.5-261.24 184.96-67.07 49.61-133.76 99.73-197 154.25-20.96 18.07-41.54 36.61-57.91 59.13-59.36 81.64-75.62 171.94-48.97 268.6 24.03 87.16 77.76 151.43 160.71 189.11 56.87 25.84 116.84 31.8 178.3 21.78 64.65-10.54 120.89-38.04 166.77-85.34 31.81-32.8 60.42-68.39 88.6-104.28 97.81-124.58 190.8-252.7 280.09-383.51.68-.99 1.23-2.07 2.41-4.05-70.37 26.4-139.69 52.4-210.28 78.88 58.57-117.03 116.54-232.85 174.51-348.67l-.92-.85c-117.42 58.66-234.85 117.32-353.44 176.57 28.12-70.58 55.66-139.7 83.67-210Z" style="fill:#fff;stroke-width:0"/></svg>